<svg width="149" height="34" viewBox="0 0 149 34" fill="none" xmlns="http://www.w3.org/2000/svg">
<path d="M10.1052 25.1253C8.35817 25.1253 6.79263 24.8417 5.40859 24.2744C4.02456 23.7072 2.9128 22.8677 2.07331 21.756C1.2565 20.6442 0.825407 19.3055 0.780029 17.74H6.97414C7.0649 18.6249 7.3712 19.3055 7.89305 19.782C8.41489 20.2358 9.09557 20.4627 9.93506 20.4627C10.7972 20.4627 11.4779 20.2698 11.9771 19.8841C12.4762 19.4757 12.7258 18.9198 12.7258 18.2165C12.7258 17.6266 12.5216 17.1387 12.1132 16.753C11.7275 16.3673 11.2397 16.0497 10.6498 15.8001C10.0825 15.5505 9.26573 15.2669 8.19935 14.9493C6.65649 14.4728 5.39725 13.9963 4.42162 13.5198C3.44599 13.0434 2.6065 12.34 1.90314 11.4098C1.19978 10.4795 0.848096 9.26565 0.848096 7.76817C0.848096 5.54464 1.65356 3.80893 3.26448 2.56103C4.8754 1.29045 6.97414 0.655151 9.56069 0.655151C12.1926 0.655151 14.314 1.29045 15.925 2.56103C17.5359 3.80893 18.3981 5.55598 18.5115 7.8022H12.2153C12.1699 7.03077 11.8863 6.42951 11.3645 5.99842C10.8426 5.54464 10.1733 5.31775 9.35649 5.31775C8.65313 5.31775 8.0859 5.51061 7.65481 5.89632C7.22372 6.25935 7.00817 6.79254 7.00817 7.4959C7.00817 8.26733 7.3712 8.86859 8.09725 9.29968C8.8233 9.73077 9.95775 10.1959 11.5006 10.6951C13.0435 11.2169 14.2914 11.7161 15.2443 12.1925C16.2199 12.669 17.0594 13.361 17.7628 14.2686C18.4661 15.1761 18.8178 16.3446 18.8178 17.774C18.8178 19.1354 18.4661 20.3719 17.7628 21.4837C17.0821 22.5955 16.0838 23.4803 14.7678 24.1383C13.4519 24.7963 11.8977 25.1253 10.1052 25.1253Z" fill="#0053CF"/>
<path d="M41.1518 5.89632V24.8871H35.3321V22.3005C34.7422 23.14 33.9367 23.8207 32.9157 24.3425C31.9174 24.8417 30.8056 25.0913 29.5804 25.0913C28.1283 25.0913 26.8464 24.7736 25.7346 24.1383C24.6229 23.4803 23.7607 22.5387 23.1481 21.3135C22.5355 20.0883 22.2292 18.6476 22.2292 16.9913V5.89632H28.0149V16.2085C28.0149 17.4791 28.3439 18.4661 29.0018 19.1694C29.6598 19.8728 30.5447 20.2245 31.6565 20.2245C32.7909 20.2245 33.6871 19.8728 34.3451 19.1694C35.0031 18.4661 35.3321 17.4791 35.3321 16.2085V5.89632H41.1518Z" fill="#0053CF"/>
<path d="M51.1518 8.58497C51.7191 7.7001 52.5018 6.98539 53.5002 6.44086C54.4985 5.89632 55.667 5.62405 57.0056 5.62405C58.5712 5.62405 59.9892 6.02111 61.2598 6.81523C62.5304 7.60934 63.5287 8.7438 64.2548 10.2186C65.0035 11.6934 65.3779 13.4064 65.3779 15.3577C65.3779 17.3089 65.0035 19.0333 64.2548 20.5308C63.5287 22.0055 62.5304 23.1513 61.2598 23.9681C59.9892 24.7623 58.5712 25.1593 57.0056 25.1593C55.6896 25.1593 54.5212 24.8871 53.5002 24.3425C52.5018 23.798 51.7191 23.0946 51.1518 22.2324V33.94H45.3321V5.89632H51.1518V8.58497ZM59.456 15.3577C59.456 13.9056 59.0476 12.7711 58.2308 11.9543C57.4367 11.1148 56.4497 10.6951 55.2699 10.6951C54.1128 10.6951 53.1258 11.1148 52.309 11.9543C51.5149 12.7938 51.1178 13.9396 51.1178 15.3917C51.1178 16.8438 51.5149 17.9896 52.309 18.8291C53.1258 19.6686 54.1128 20.0883 55.2699 20.0883C56.427 20.0883 57.414 19.6686 58.2308 18.8291C59.0476 17.9669 59.456 16.8098 59.456 15.3577Z" fill="#0053CF"/>
<path d="M86.3327 15.0854C86.3327 15.6299 86.2987 16.1971 86.2306 16.7871H73.0596C73.1504 17.9669 73.5247 18.8745 74.1827 19.5097C74.8634 20.1224 75.6916 20.4287 76.6672 20.4287C78.1193 20.4287 79.1289 19.8161 79.6962 18.5908H85.8903C85.5726 19.8387 84.9941 20.9618 84.1546 21.9602C83.3378 22.9585 82.3054 23.7413 81.0575 24.3085C79.8096 24.8757 78.4142 25.1593 76.8714 25.1593C75.0109 25.1593 73.3546 24.7623 71.9025 23.9681C70.4504 23.174 69.3159 22.0396 68.4991 20.5648C67.6823 19.09 67.2739 17.3656 67.2739 15.3917C67.2739 13.4177 67.671 11.6934 68.4651 10.2186C69.2819 8.7438 70.4163 7.60934 71.8684 6.81523C73.3205 6.02111 74.9882 5.62405 76.8714 5.62405C78.7092 5.62405 80.3428 6.00977 81.7722 6.78119C83.2016 7.55262 84.3134 8.65304 85.1075 10.0824C85.9243 11.5119 86.3327 13.1795 86.3327 15.0854ZM80.3768 13.5539C80.3768 12.5556 80.0365 11.7614 79.3558 11.1715C78.6752 10.5816 77.8243 10.2867 76.8033 10.2867C75.8277 10.2867 74.9995 10.5703 74.3189 11.1375C73.6609 11.7047 73.2525 12.5102 73.0937 13.5539H80.3768Z" fill="#0053CF"/>
<path d="M95.2227 9.06144C95.9033 8.01775 96.7542 7.20094 97.7752 6.61103C98.7962 5.99842 99.9306 5.69212 101.179 5.69212V11.8522H99.579C98.1269 11.8522 97.0378 12.1698 96.3117 12.8051C95.5857 13.4177 95.2227 14.5068 95.2227 16.0724V24.8871H89.4029V5.89632H95.2227V9.06144Z" fill="#0053CF"/>
<path d="M112.605 25.1593C110.744 25.1593 109.065 24.7623 107.568 23.9681C106.093 23.174 104.925 22.0396 104.062 20.5648C103.223 19.09 102.803 17.3656 102.803 15.3917C102.803 13.4404 103.234 11.7274 104.096 10.2526C104.959 8.75514 106.138 7.60934 107.636 6.81523C109.133 6.02111 110.812 5.62405 112.673 5.62405C114.533 5.62405 116.212 6.02111 117.71 6.81523C119.207 7.60934 120.387 8.75514 121.249 10.2526C122.111 11.7274 122.543 13.4404 122.543 15.3917C122.543 17.3429 122.1 19.0673 121.215 20.5648C120.353 22.0396 119.162 23.174 117.642 23.9681C116.144 24.7623 114.465 25.1593 112.605 25.1593ZM112.605 20.1224C113.717 20.1224 114.658 19.7139 115.43 18.8971C116.224 18.0803 116.621 16.9119 116.621 15.3917C116.621 13.8715 116.235 12.703 115.464 11.8862C114.715 11.0694 113.785 10.661 112.673 10.661C111.538 10.661 110.597 11.0694 109.848 11.8862C109.099 12.6803 108.725 13.8488 108.725 15.3917C108.725 16.9119 109.088 18.0803 109.814 18.8971C110.563 19.7139 111.493 20.1224 112.605 20.1224Z" fill="#0053CF"/>
<path d="M125.653 12.9072C125.653 10.5476 126.163 8.44885 127.184 6.61104C128.205 4.75053 129.624 3.30978 131.439 2.28877C133.276 1.24508 135.353 0.723228 137.667 0.723228C140.503 0.723228 142.931 1.47197 144.95 2.96944C146.969 4.46692 148.319 6.50893 149 9.09549H142.602C142.125 8.09717 141.445 7.33709 140.56 6.81524C139.697 6.29339 138.711 6.03247 137.599 6.03247C135.806 6.03247 134.354 6.65641 133.242 7.90431C132.131 9.15221 131.575 10.8199 131.575 12.9072C131.575 14.9946 132.131 16.6623 133.242 17.9102C134.354 19.1581 135.806 19.782 137.599 19.782C138.711 19.782 139.697 19.5211 140.56 18.9993C141.445 18.4774 142.125 17.7173 142.602 16.719H149C148.319 19.3056 146.969 21.3476 144.95 22.845C142.931 24.3198 140.503 25.0572 137.667 25.0572C135.353 25.0572 133.276 24.5467 131.439 23.5257C129.624 22.482 128.205 21.0413 127.184 19.2035C126.163 17.3656 125.653 15.2669 125.653 12.9072Z" fill="#0053CF"/>
<circle cx="137.198" cy="12.9753" r="3.59243" fill="#0053CF"/>
</svg>
