<svg width="151" height="30" viewBox="0 0 151 30" fill="none" xmlns="http://www.w3.org/2000/svg">
<path d="M124.5 11.5C124.5 13.9853 122.433 16 120.5 16C118.567 16 118.5 13.9853 118.5 11.5C118.5 9.01472 118.567 7 120.5 7C122.433 7 124.5 9.01472 124.5 11.5Z" fill="#0076B6"/>
<path d="M8.48001 22.21C6.94001 22.21 5.56001 21.96 4.34001 21.46C3.12001 20.96 2.14001 20.22 1.40001 19.24C0.68001 18.26 0.30001 17.08 0.26001 15.7H5.72001C5.80001 16.48 6.07001 17.08 6.53001 17.5C6.99001 17.9 7.59001 18.1 8.33001 18.1C9.09001 18.1 9.69001 17.93 10.13 17.59C10.57 17.23 10.79 16.74 10.79 16.12C10.79 15.6 10.61 15.17 10.25 14.83C9.91001 14.49 9.48001 14.21 8.96001 13.99C8.46001 13.77 7.74001 13.52 6.80001 13.24C5.44001 12.82 4.33001 12.4 3.47001 11.98C2.61001 11.56 1.87001 10.94 1.25001 10.12C0.63001 9.30001 0.32001 8.23002 0.32001 6.91002C0.32001 4.95002 1.03001 3.42002 2.45001 2.32001C3.87001 1.20002 5.72001 0.640015 8.00001 0.640015C10.32 0.640015 12.19 1.20002 13.61 2.32001C15.03 3.42002 15.79 4.96001 15.89 6.94001H10.34C10.3 6.26001 10.05 5.73002 9.59001 5.35002C9.13001 4.95001 8.54001 4.75001 7.82001 4.75001C7.20001 4.75001 6.70001 4.92001 6.32001 5.26001C5.94001 5.58001 5.75001 6.05001 5.75001 6.67001C5.75001 7.35001 6.07001 7.88001 6.71001 8.26001C7.35001 8.64001 8.35001 9.05002 9.71001 9.49002C11.07 9.95002 12.17 10.39 13.01 10.81C13.87 11.23 14.61 11.84 15.23 12.64C15.85 13.44 16.16 14.47 16.16 15.73C16.16 16.93 15.85 18.02 15.23 19C14.63 19.98 13.75 20.76 12.59 21.34C11.43 21.92 10.06 22.21 8.48001 22.21Z" fill="#0076B6"/>
<path d="M35.847 5.26001V22H30.717V19.72C30.197 20.46 29.487 21.06 28.587 21.52C27.707 21.96 26.727 22.18 25.647 22.18C24.367 22.18 23.237 21.9 22.257 21.34C21.277 20.76 20.517 19.93 19.977 18.85C19.437 17.77 19.167 16.5 19.167 15.04V5.26001H24.267V14.35C24.267 15.47 24.557 16.34 25.137 16.96C25.717 17.58 26.497 17.89 27.477 17.89C28.477 17.89 29.267 17.58 29.847 16.96C30.427 16.34 30.717 15.47 30.717 14.35V5.26001H35.847Z" fill="#0076B6"/>
<path d="M44.6619 7.63001C45.1619 6.85001 45.8519 6.22001 46.7319 5.74001C47.6119 5.26001 48.6419 5.02001 49.8219 5.02001C51.2019 5.02001 52.4519 5.37001 53.5719 6.07001C54.6919 6.77001 55.5719 7.77002 56.2119 9.07001C56.8719 10.37 57.2019 11.88 57.2019 13.6C57.2019 15.32 56.8719 16.84 56.2119 18.16C55.5719 19.46 54.6919 20.47 53.5719 21.19C52.4519 21.89 51.2019 22.24 49.8219 22.24C48.6619 22.24 47.6319 22 46.7319 21.52C45.8519 21.04 45.1619 20.42 44.6619 19.66V29.98H39.5319V5.26001H44.6619V7.63001ZM51.9819 13.6C51.9819 12.32 51.6219 11.32 50.9019 10.6C50.2019 9.86001 49.3319 9.49002 48.2919 9.49002C47.2719 9.49002 46.4019 9.86001 45.6819 10.6C44.9819 11.34 44.6319 12.35 44.6319 13.63C44.6319 14.91 44.9819 15.92 45.6819 16.66C46.4019 17.4 47.2719 17.77 48.2919 17.77C49.3119 17.77 50.1819 17.4 50.9019 16.66C51.6219 15.9 51.9819 14.88 51.9819 13.6Z" fill="#0076B6"/>
<path d="M75.6732 13.36C75.6732 13.84 75.6432 14.34 75.5832 14.86H63.9732C64.0532 15.9 64.3832 16.7 64.9632 17.26C65.5632 17.8 66.2932 18.07 67.1532 18.07C68.4332 18.07 69.3232 17.53 69.8232 16.45H75.2832C75.0032 17.55 74.4932 18.54 73.7532 19.42C73.0332 20.3 72.1232 20.99 71.0232 21.49C69.9232 21.99 68.6932 22.24 67.3332 22.24C65.6932 22.24 64.2332 21.89 62.9532 21.19C61.6732 20.49 60.6732 19.49 59.9532 18.19C59.2332 16.89 58.8732 15.37 58.8732 13.63C58.8732 11.89 59.2232 10.37 59.9232 9.07001C60.6432 7.77002 61.6432 6.77001 62.9232 6.07001C64.2032 5.37001 65.6732 5.02001 67.3332 5.02001C68.9532 5.02001 70.3932 5.36001 71.6532 6.04001C72.9132 6.72001 73.8932 7.69001 74.5932 8.95001C75.3132 10.21 75.6732 11.68 75.6732 13.36ZM70.4232 12.01C70.4232 11.13 70.1232 10.43 69.5232 9.91002C68.9232 9.39002 68.1732 9.13001 67.2732 9.13001C66.4132 9.13001 65.6832 9.38001 65.0832 9.88001C64.5032 10.38 64.1432 11.09 64.0032 12.01H70.4232Z" fill="#0076B6"/>
<path d="M83.5095 8.05001C84.1095 7.13001 84.8595 6.41001 85.7595 5.89001C86.6595 5.35001 87.6595 5.08002 88.7595 5.08002V10.51H87.3495C86.0695 10.51 85.1095 10.79 84.4695 11.35C83.8295 11.89 83.5095 12.85 83.5095 14.23V22H78.3795V5.26001H83.5095V8.05001Z" fill="#0076B6"/>
<path d="M98.8316 22.24C97.1916 22.24 95.7116 21.89 94.3916 21.19C93.0916 20.49 92.0616 19.49 91.3016 18.19C90.5616 16.89 90.1916 15.37 90.1916 13.63C90.1916 11.91 90.5716 10.4 91.3316 9.10002C92.0916 7.78002 93.1316 6.77001 94.4516 6.07001C95.7716 5.37001 97.2516 5.02001 98.8916 5.02001C100.532 5.02001 102.012 5.37001 103.332 6.07001C104.652 6.77001 105.692 7.78002 106.452 9.10002C107.212 10.4 107.592 11.91 107.592 13.63C107.592 15.35 107.202 16.87 106.422 18.19C105.662 19.49 104.612 20.49 103.272 21.19C101.952 21.89 100.472 22.24 98.8316 22.24ZM98.8316 17.8C99.8116 17.8 100.642 17.44 101.322 16.72C102.022 16 102.372 14.97 102.372 13.63C102.372 12.29 102.032 11.26 101.352 10.54C100.692 9.82001 99.8716 9.46001 98.8916 9.46001C97.8916 9.46001 97.0616 9.82001 96.4016 10.54C95.7416 11.24 95.4116 12.27 95.4116 13.63C95.4116 14.97 95.7316 16 96.3716 16.72C97.0316 17.44 97.8516 17.8 98.8316 17.8Z" fill="#0076B6"/>
<path d="M109.99 11.44C109.99 9.36001 110.44 7.51001 111.34 5.89001C112.24 4.25001 113.49 2.98001 115.09 2.08001C116.71 1.16001 118.54 0.700012 120.58 0.700012C123.08 0.700012 125.22 1.36001 127 2.68001C128.78 4.00001 129.97 5.80001 130.57 8.08001H124.93C124.51 7.20001 123.91 6.53001 123.13 6.07001C122.37 5.61001 121.5 5.38001 120.52 5.38001C118.94 5.38001 117.66 5.93001 116.68 7.03001C115.7 8.13001 115.21 9.60001 115.21 11.44C115.21 13.28 115.7 14.75 116.68 15.85C117.66 16.95 118.94 17.5 120.52 17.5C121.5 17.5 122.37 17.27 123.13 16.81C123.91 16.35 124.51 15.68 124.93 14.8H130.57C129.97 17.08 128.78 18.88 127 20.2C125.22 21.5 123.08 22.15 120.58 22.15C118.54 22.15 116.71 21.7 115.09 20.8C113.49 19.88 112.24 18.61 111.34 16.99C110.44 15.37 109.99 13.52 109.99 11.44Z" fill="#0076B6"/>
<path d="M141.332 22.24C139.692 22.24 138.212 21.89 136.892 21.19C135.592 20.49 134.562 19.49 133.802 18.19C133.062 16.89 132.692 15.37 132.692 13.63C132.692 11.91 133.072 10.4 133.832 9.10001C134.592 7.78001 135.632 6.77001 136.952 6.07001C138.272 5.37001 139.752 5.02001 141.392 5.02001C143.032 5.02001 144.512 5.37001 145.832 6.07001C147.152 6.77001 148.192 7.78001 148.952 9.10001C149.712 10.4 150.092 11.91 150.092 13.63C150.092 15.35 149.702 16.87 148.922 18.19C148.162 19.49 147.112 20.49 145.772 21.19C144.452 21.89 142.972 22.24 141.332 22.24ZM141.332 17.8C142.312 17.8 143.142 17.44 143.822 16.72C144.522 16 144.872 14.97 144.872 13.63C144.872 12.29 144.532 11.26 143.852 10.54C143.192 9.82001 142.372 9.46001 141.392 9.46001C140.392 9.46001 139.562 9.82001 138.902 10.54C138.242 11.24 137.912 12.27 137.912 13.63C137.912 14.97 138.232 16 138.872 16.72C139.532 17.44 140.352 17.8 141.332 17.8Z" fill="#0076B6"/>
</svg>
